<mxfile host="app.diagrams.net" modified="2023-02-16T09:28:33.464Z" agent="5.0 (Windows NT 10.0; Win64; x64) AppleWebKit/537.36 (KHTML, like Gecko) Chrome/110.0.0.0 Safari/537.36" etag="_xTbwDXZsH7rCAR9BSQc" version="20.8.20" type="github">
  <diagram id="C5RBs43oDa-KdzZeNtuy" name="Page-1">
    <mxGraphModel dx="1434" dy="764" grid="1" gridSize="10" guides="1" tooltips="1" connect="1" arrows="1" fold="1" page="1" pageScale="1" pageWidth="827" pageHeight="1169" math="0" shadow="0">
      <root>
        <mxCell id="WIyWlLk6GJQsqaUBKTNV-0" />
        <mxCell id="WIyWlLk6GJQsqaUBKTNV-1" parent="WIyWlLk6GJQsqaUBKTNV-0" />
        <mxCell id="wc80Yuh8lA2m-OOXR4XR-4" style="edgeStyle=orthogonalEdgeStyle;rounded=0;orthogonalLoop=1;jettySize=auto;html=1;entryX=0.5;entryY=0;entryDx=0;entryDy=0;" edge="1" parent="WIyWlLk6GJQsqaUBKTNV-1" source="wc80Yuh8lA2m-OOXR4XR-0" target="wc80Yuh8lA2m-OOXR4XR-3">
          <mxGeometry relative="1" as="geometry" />
        </mxCell>
        <mxCell id="wc80Yuh8lA2m-OOXR4XR-0" value="Start" style="ellipse;whiteSpace=wrap;html=1;" vertex="1" parent="WIyWlLk6GJQsqaUBKTNV-1">
          <mxGeometry x="354" y="40" width="120" height="80" as="geometry" />
        </mxCell>
        <mxCell id="wc80Yuh8lA2m-OOXR4XR-2" value="Stop" style="ellipse;whiteSpace=wrap;html=1;" vertex="1" parent="WIyWlLk6GJQsqaUBKTNV-1">
          <mxGeometry x="230" y="430" width="120" height="80" as="geometry" />
        </mxCell>
        <mxCell id="wc80Yuh8lA2m-OOXR4XR-3" value="tablica = [3,1,2]&lt;br&gt;suma = 0&lt;br&gt;i = 0" style="rounded=0;whiteSpace=wrap;html=1;" vertex="1" parent="WIyWlLk6GJQsqaUBKTNV-1">
          <mxGeometry x="354" y="160" width="120" height="60" as="geometry" />
        </mxCell>
        <mxCell id="wc80Yuh8lA2m-OOXR4XR-11" style="edgeStyle=orthogonalEdgeStyle;rounded=0;orthogonalLoop=1;jettySize=auto;html=1;entryX=0.5;entryY=0;entryDx=0;entryDy=0;" edge="1" parent="WIyWlLk6GJQsqaUBKTNV-1" source="wc80Yuh8lA2m-OOXR4XR-5" target="wc80Yuh8lA2m-OOXR4XR-9">
          <mxGeometry relative="1" as="geometry" />
        </mxCell>
        <mxCell id="wc80Yuh8lA2m-OOXR4XR-12" style="edgeStyle=orthogonalEdgeStyle;rounded=0;orthogonalLoop=1;jettySize=auto;html=1;entryX=0.5;entryY=0;entryDx=0;entryDy=0;" edge="1" parent="WIyWlLk6GJQsqaUBKTNV-1" source="wc80Yuh8lA2m-OOXR4XR-5" target="wc80Yuh8lA2m-OOXR4XR-8">
          <mxGeometry relative="1" as="geometry" />
        </mxCell>
        <mxCell id="wc80Yuh8lA2m-OOXR4XR-5" value="i &amp;gt; dlugosc tablicy" style="rhombus;whiteSpace=wrap;html=1;" vertex="1" parent="WIyWlLk6GJQsqaUBKTNV-1">
          <mxGeometry x="366" y="250" width="96" height="100" as="geometry" />
        </mxCell>
        <mxCell id="wc80Yuh8lA2m-OOXR4XR-6" value="Tak" style="text;html=1;align=center;verticalAlign=middle;resizable=0;points=[];autosize=1;strokeColor=none;fillColor=none;" vertex="1" parent="WIyWlLk6GJQsqaUBKTNV-1">
          <mxGeometry x="470" y="270" width="40" height="30" as="geometry" />
        </mxCell>
        <mxCell id="wc80Yuh8lA2m-OOXR4XR-7" value="Nie" style="text;html=1;align=center;verticalAlign=middle;resizable=0;points=[];autosize=1;strokeColor=none;fillColor=none;" vertex="1" parent="WIyWlLk6GJQsqaUBKTNV-1">
          <mxGeometry x="310" y="270" width="40" height="30" as="geometry" />
        </mxCell>
        <mxCell id="wc80Yuh8lA2m-OOXR4XR-13" style="edgeStyle=orthogonalEdgeStyle;rounded=0;orthogonalLoop=1;jettySize=auto;html=1;entryX=0.5;entryY=0;entryDx=0;entryDy=0;" edge="1" parent="WIyWlLk6GJQsqaUBKTNV-1" source="wc80Yuh8lA2m-OOXR4XR-8" target="wc80Yuh8lA2m-OOXR4XR-2">
          <mxGeometry relative="1" as="geometry" />
        </mxCell>
        <mxCell id="wc80Yuh8lA2m-OOXR4XR-8" value="Pokaz suma" style="rounded=0;whiteSpace=wrap;html=1;" vertex="1" parent="WIyWlLk6GJQsqaUBKTNV-1">
          <mxGeometry x="230" y="340" width="120" height="60" as="geometry" />
        </mxCell>
        <mxCell id="wc80Yuh8lA2m-OOXR4XR-10" style="edgeStyle=orthogonalEdgeStyle;rounded=0;orthogonalLoop=1;jettySize=auto;html=1;entryX=0.5;entryY=1;entryDx=0;entryDy=0;" edge="1" parent="WIyWlLk6GJQsqaUBKTNV-1" source="wc80Yuh8lA2m-OOXR4XR-9" target="wc80Yuh8lA2m-OOXR4XR-5">
          <mxGeometry relative="1" as="geometry" />
        </mxCell>
        <mxCell id="wc80Yuh8lA2m-OOXR4XR-9" value="suma += tablica[i]&lt;br&gt;i++" style="rounded=0;whiteSpace=wrap;html=1;" vertex="1" parent="WIyWlLk6GJQsqaUBKTNV-1">
          <mxGeometry x="470" y="340" width="120" height="60" as="geometry" />
        </mxCell>
      </root>
    </mxGraphModel>
  </diagram>
</mxfile>
